<?xml version="1.0" encoding="UTF-8"?>
<svg width="22px" height="22px" viewBox="0 0 22 22" version="1.1" xmlns="http://www.w3.org/2000/svg" xmlns:xlink="http://www.w3.org/1999/xlink">
    <!-- Generator: sketchtool 61 (101010) - https://sketch.com -->
    <title>280890A2-B3E4-459E-8D91-3F7DB41B2BEC</title>
    <desc>Created with sketchtool.</desc>
    <g id="Symbol" stroke="none" stroke-width="1" fill="none" fill-rule="evenodd">
        <g id="Icons/Facebook/White" fill="#FFFFFF">
            <g id="flogo-HexRBG-Wht-58">
                <path d="M20.7842105,0 L1.21578947,0 C0.544327488,0 0,0.544327488 0,1.21578947 L0,20.7842105 C0,21.4556725 0.544327488,22 1.21578947,22 L11.7526316,22 L11.7526316,13.5087719 L8.87719298,13.5087719 L8.87719298,10.1624561 L11.737193,10.1624561 L11.737193,7.71929825 C11.737193,4.87473684 13.4701754,3.32701754 16.0059649,3.32701754 C16.8673902,3.32957695 17.7280522,3.37853677 18.5842105,3.47368421 L18.5842105,6.44175439 L16.8319298,6.44175439 C15.4540351,6.44175439 15.1877193,7.09403509 15.1877193,8.05508772 L15.1877193,10.1778947 L18.4877193,10.1778947 L18.0592982,13.5087719 L15.1877193,13.5087719 L15.1877193,22 L20.7842105,22 C21.4556725,22 22,21.4556725 22,20.7842105 L22,1.21578947 C22,0.544327488 21.4556725,0 20.7842105,0 Z" id="Path"></path>
            </g>
        </g>
    </g>
</svg>