<svg xmlns="http://www.w3.org/2000/svg" width="176" height="52" viewBox="0 0 176 52"><g fill="#FF575F"><path d="M173.5 51.4h-7.6c-1.1 0-1.9-.9-1.9-1.9V21.2c0-1.1.8-1.9 1.9-1.9h7.6c1.1 0 1.9.9 1.9 1.9v28.3c0 1-.9 1.9-1.9 1.9z"/><ellipse cx="58" cy="25" rx="6.3" ry="6.4"/><ellipse cx="169.7" cy="6.4" rx="6.3" ry="6.4"/><path d="M15.1 18.6C6.8 18.6 0 25.5 0 34v2.6C0 45.1 6.8 52 15.1 52c8.4 0 15.1-6.9 15.1-15.4V34c.1-8.5-6.7-15.4-15.1-15.4zm3.8 23.8c0 2.1-1.7 3.9-3.8 3.9s-3.8-1.7-3.8-3.9V28.3c0-2.1 1.7-3.9 3.8-3.9s3.8 1.7 3.8 3.9v14.1zM88.3 21.2c-2-1.6-4.5-2.6-7.3-2.6-6.5 0-11.7 5.3-11.7 11.9v9.6C69.3 46.7 74.5 52 81 52c2.7 0 5.3-1 7.3-2.6 0 1.1.8 1.9 1.9 1.9h7.6c1.1 0 1.9-.9 1.9-1.9V21.2c0-1.1-.8-1.9-1.9-1.9h-7.6c-1 0-1.9.8-1.9 1.9zm0 21.2c0 2.1-1.7 3.9-3.8 3.9-2.1 0-3.8-1.7-3.8-3.9V28.3c0-2.1 1.7-3.9 3.8-3.9 2.1 0 3.8 1.7 3.8 3.9v14.1zM43.2 19.3h-3.5c-1.1 0-1.9.9-1.9 1.9v28.3c0 1.1.8 1.9 1.9 1.9h7.6c1.1 0 1.9-.9 1.9-1.9V28.7c0-1.4-.4-2.8-1.2-4.1l-2.4-4c-.5-.8-1.4-1.3-2.4-1.3zM144.5 18.6c-3.8 0-7.1 2-9.3 4.9-1.6-3.3-4.5-4.9-8.4-4.9-3.3 0-7.4 1.9-8.4 4.9v-2.4c0-1.1-.8-1.9-1.9-1.9h-7.6c-1.1 0-1.9.9-1.9 1.9v28.3c0 1.1.8 1.9 1.9 1.9h7.6c1.1 0 1.9-.9 1.9-1.9v-21c0-2.1 1.6-4 3.7-4 2.1-.1 3.8 1.7 3.8 3.9v21.2c0 1.1.8 1.9 1.9 1.9h7.6c1.1 0 1.9-.9 1.9-1.9V28.4c0-2.1 1.6-4 3.7-4 2.1-.1 3.8 1.7 3.8 3.9v21.2c0 1.1.8 1.9 1.9 1.9h7.6c1.1 0 1.9-.9 1.9-1.9V30.8c.2-7.5-3.5-12.2-11.7-12.2z"/></g></svg>