<?xml version="1.0" encoding="UTF-8"?>
<svg width="22px" height="22px" viewBox="0 0 22 22" version="1.1" xmlns="http://www.w3.org/2000/svg" xmlns:xlink="http://www.w3.org/1999/xlink">
    <!-- Generator: sketchtool 61 (101010) - https://sketch.com -->
    <title>BEBF52C2-0863-4140-9758-89C294A75BBD</title>
    <desc>Created with sketchtool.</desc>
    <g id="Symbol" stroke="none" stroke-width="1" fill="none" fill-rule="evenodd">
        <g id="Icons/Twitter/White" fill="#FFFFFF" fill-rule="nonzero">
            <g id="Twitter_Social_Icon_Rounded_Square_White">
                <path d="M19.25,22 L2.75,22 C1.232,22 0,20.768 0,19.25 L0,2.75 C0,1.232 1.232,0 2.75,0 L19.25,0 C20.768,0 22,1.232 22,2.75 L22,19.25 C22,20.768 20.768,22 19.25,22 Z M8.448,16.588 C13.6345,16.588 16.4725,12.287 16.4725,8.5635 C16.4725,8.4425 16.4725,8.3215 16.467,8.2005 C17.017,7.8045 17.4955,7.304 17.875,6.7375 C17.369,6.963 16.8245,7.1115 16.2525,7.183 C16.8355,6.8365 17.281,6.281 17.4955,5.621 C16.951,5.9455 16.346,6.1765 15.7025,6.303 C15.1855,5.753 14.454,5.412 13.6455,5.412 C12.089,5.412 10.824,6.677 10.824,8.2335 C10.824,8.4535 10.8515,8.668 10.8955,8.877 C8.5525,8.7615 6.4735,7.634 5.082,5.929 C4.84,6.347 4.7025,6.831 4.7025,7.348 C4.7025,8.327 5.203,9.1905 5.9565,9.6965 C5.4945,9.68 5.06,9.5535 4.6805,9.3445 C4.6805,9.3555 4.6805,9.3665 4.6805,9.383 C4.6805,10.747 5.654,11.891 6.941,12.1495 C6.7045,12.2155 6.457,12.2485 6.1985,12.2485 C6.017,12.2485 5.841,12.232 5.6705,12.199 C6.028,13.321 7.073,14.135 8.305,14.157 C7.337,14.916 6.1215,15.367 4.8015,15.367 C4.576,15.367 4.3505,15.356 4.1305,15.3285 C5.3735,16.1205 6.8585,16.588 8.448,16.588 L8.448,16.588 Z" id="Shape"></path>
            </g>
        </g>
    </g>
</svg>